P2
10 10
255
  7 255 255 255 255 255 255 255 255 255 
 55   7  55  55  55  55  55  55  55  55 
255 255   7 255 255 255 255 255 255 255 
255 255 255   7 255 255 255 255 255 255 
255 255 255 255   7 255 255 255 255 255 
255 255 255 255 255   7 255 255 255 255 
255 255 255 255 255 255   7 255 255 255 
103 103 255 255 255 255 255   7 255 255 
255 255 255 255 255 255 255 255   7 255 
255 255 255 255 255 255 255 255 255   7 
