P2
# A diagonal line 10 pixels wide and 10 pixels high
10 10
255
0 255 255 255 255 255 255 255 255 255
50 0 50 50 50 50 50 50 50 50 
255 255 0 255 255 255 255 255 255 255
255 255 255 0 255 255 255 255 255 255
255 255 255 255 0 255 255 255 255 255
255 255 255 255 255 0 255 255 255 255
255 255 255 255 255 255 0 255 255 255
100 100 255 255 255 255 255 0 255 255
255 255 255 255 255 255 255 255 0 255
255 255 255 255 255 255 255 255 255 0 